<svg width="36" height="35" viewBox="0 0 36 35" fill="none" xmlns="http://www.w3.org/2000/svg">
<g id="35px/agreement">
<path id="Vector" d="M29.6667 5.83335V23.3334H12.1667V5.83335H29.6667ZM29.6667 2.91669H12.1667C10.5626 2.91669 9.25008 4.22919 9.25008 5.83335V23.3334C9.25008 24.9375 10.5626 26.25 12.1667 26.25H29.6667C31.2709 26.25 32.5834 24.9375 32.5834 23.3334V5.83335C32.5834 4.22919 31.2709 2.91669 29.6667 2.91669ZM18.6855 20.4167L13.6251 15.3125L15.6667 13.2563L18.6855 16.2896L26.1667 8.75002L28.2084 10.8063L18.6855 20.4167ZM6.33341 8.75002H3.41675V29.1667C3.41675 30.7709 4.72925 32.0834 6.33341 32.0834H26.7501V29.1667H6.33341V8.75002Z" fill="#4F8FF0"/>
</g>
</svg>
